<?xml version="1.0" encoding="UTF-8"?>
<svg id="Camada_1" data-name="Camada 1" xmlns="http://www.w3.org/2000/svg" viewBox="0 0 255.12 77.31">
  <defs>
    <style>
      .cls-1 {
        fill: #6f5d4d;
      }
    </style>
  </defs>
  <path class="cls-1" d="M27.07,66.01c7.52.22,7.69,11,0,11.29-7.66-.28-7.49-11.1,0-11.29M27.07,66.25c-5.71.21-5.73,8.51,0,8.66,5.73-.15,5.71-8.45,0-8.66"/>
  <path class="cls-1" d="M29.59,63.06c5.62,4.63,13.95-.04,12.01-6.76-1.13-4.4-7.1-6.14-10.74-3.23-1.34.96-2.37,2.43-3.01,4.22l-.24-.02c.41-6.14,7.83-9.69,12.9-6.19,7.58,5.15,2.61,16.88-6.34,15.09-1.87-.39-3.58-1.46-4.76-2.95l.19-.15Z"/>
  <path class="cls-1" d="M24.84,53.38c-5.33-4.96-13.93-.8-12.4,6.02.86,4.46,6.71,6.56,10.52,3.88,1.39-.88,2.52-2.28,3.25-4.03l.24.04c-.78,6.11-8.4,9.2-13.25,5.4-7.25-5.6-1.58-17,7.25-14.68,1.84.5,3.49,1.67,4.58,3.23l-.2.14Z"/>
  <path class="cls-1" d="M38.38,35.21c1.31,4.88-2.13,10.35-7.06,11.78-5.22,1.79-11.39-1-13.72-6.02-2.42-4.97-.72-11.51,3.96-14.44,4.23-2.92,10.61-2.15,13.6,1.93l-.16.18c-5.26-4.92-14.29-2.18-15.91,4.84-1.77,6.91,4.85,13.55,11.76,11.68,4.39-1.04,7.61-5.43,7.29-9.94h.24"/>
  <path class="cls-1" d="M36.58,31.91c1.28-3.25,5.05-5.24,8.58-4.87,5.94.35,10.29,6.82,8.59,12.48-1.25,5.37-7.97,8.89-12.76,5.89l.07-.23c6.36,1.93,12.45-4.35,10.28-10.62-1.94-6.34-10.59-7.81-14.57-2.5l-.19-.14"/>
  <path class="cls-1" d="M17.32,42.61c-1.42,3.19-5.27,5.02-8.78,4.5-5.92-.61-9.98-7.25-8.05-12.84,1.49-5.31,8.35-8.54,13-5.33l-.08.23c-6.27-2.2-12.62,3.81-10.73,10.17,1.66,6.42,10.24,8.26,14.45,3.13l.18.15"/>
  <path class="cls-1" d="M43,12.59c.02,2.09-.08,4.38-.06,6.55-4.42.43-10.09-.22-15.58-.2-.69,0-1.38.02-2.07.04-5.63.22-10.88,1.42-14.15,5.53-.04-2.11.06-4.38.06-6.55,4.19-.4,9.54.18,14.81.2.59,0,1.16,0,1.72-.02,6.04-.12,11.79-1.18,15.26-5.55"/>
  <path class="cls-1" d="M43,3.7c-7.64.45-12.62,7.91-17.07,14.85-.57-.04-1.13-.11-1.71-.18C29.59,13.19,33.47,4.85,37.61,0c1.77,1.24,3.69,2.46,5.39,3.7"/>
  <path class="cls-1" d="M105.64,9.2c5.76,4.25,5.55,10.58-.27,8.47,2.1-7.53-3.22-10.66-10.99-10.66-9.66,0-15.88,6.93-15.88,19.22s6.23,19.32,16.03,19.32c4.48,0,8.13-1.12,10.84-3.86v-15.27h-15.56v-1.03h19.51v20.01h-1c0-1.75-.93-3.57-2.18-3.31-2.73,2.82-6.43,4.31-11.61,4.31-11.46,0-21.43-7.16-21.43-20.17s9.83-20.1,21.29-20.1c4.39,0,8.1.73,11.26,3.06"/>
  <path class="cls-1" d="M133.33,6.56c5.75,0,12.13,2.33,12.13,10.28,0,8.79-6.36,11.03-12.11,11.03h-2.38c3.22.54,5.87,1.57,8.21,3.54,5.67,4.77,5.18,11.73,8.09,14.35-3.03,0-6.22.53-7.43-3.98-1.05-3.9-1.85-7.9-5.32-10.51-3.37-2.53-7.35-3.33-12.98-3.39v17.88h-4.3V12.68c0-4.44-1.64-6.13-1.64-6.13h5.94c2.8,0,4.9,0,7.97,0,1.11,0,2.36,0,3.82,0M121.54,26.84h11.81c4.73,0,7.84-4.27,7.84-10s-3.11-9.26-7.84-9.26h-11.81v19.26Z"/>
  <path class="cls-1" d="M168.49,6.54l16.8,39.21h-4.68s-3.41-7.96-5.23-12.21h-19l-5.14,12.21h-1.12l15.08-35.78c-.69-1.16-1.77-2.34-3.06-3.43h6.35ZM156.82,32.52h18.12c-3.34-7.8-6.08-14.2-9.14-21.32l-8.99,21.32"/>
  <path class="cls-1" d="M208.13,6.56c5.75,0,12.13,2.33,12.13,10.28,0,8.79-6.36,11.03-12.11,11.03s-7.12,0-12.25,0c0,0-.01,0-.01.01v17.88h-4.3V12.68c0-4.44-1.64-6.13-1.64-6.13h5.94c2.88,0,5.16,0,8.37,0,1.15,0,2.41,0,3.88,0M195.88,26.84h12.26c4.72,0,7.84-4.27,7.84-10s-3.11-9.26-7.84-9.26h-12.26v19.26Z"/>
  <path class="cls-1" d="M252.81,6.54l.44,4.97c-.94-1.28-5-3.93-8.75-3.93h-13.14v17.82h11.14c1.85,0,3.29-.42,4.39-1,1.07-.57,2.36.3,2.36,1.52s-1.28,2.08-2.36,1.52c-1.1-.58-2.54-1-4.39-1h-11.14v18.3h15.01c3.75,0,7.81-2.65,8.75-3.93l-.44,4.96h-26.66s-2.6,0-2.6,0c0,0,1.65-1.69,1.65-6.13V12.67c0-4.43-1.65-6.13-1.65-6.13h27.39Z"/>
  <path class="cls-1" d="M83.55,74.13c-1.54-.86-2.75-2.05-3.61-3.58-.87-1.53-1.3-3.27-1.3-5.23s.43-3.68,1.3-5.21c.87-1.53,2.07-2.71,3.61-3.56,1.55-.85,3.3-1.27,5.28-1.27,1.65,0,3.17.34,4.57,1.02,1.4.68,2.55,1.62,3.47,2.84.92,1.22,1.49,2.6,1.74,4.15h-1.03c-.23-1.37-.76-2.6-1.58-3.67-.82-1.08-1.86-1.92-3.11-2.53-1.25-.6-2.6-.91-4.06-.91-1.78,0-3.37.39-4.77,1.16-1.4.77-2.48,1.86-3.26,3.23-.78,1.38-1.16,2.96-1.16,4.74s.39,3.37,1.16,4.77c.78,1.4,1.86,2.48,3.26,3.26,1.4.78,2.99,1.16,4.77,1.16,1.47,0,2.83-.3,4.08-.91,1.25-.6,2.28-1.45,3.1-2.54.82-1.09,1.34-2.32,1.57-3.71h1.03c-.25,1.57-.82,2.96-1.74,4.18-.92,1.22-2.07,2.17-3.47,2.85-1.4.69-2.92,1.03-4.57,1.03-1.98,0-3.74-.43-5.28-1.29"/>
  <polygon class="cls-1" points="118.22 55.55 119.2 55.55 119.2 74.27 131.87 74.27 131.87 75.15 118.22 75.15 118.22 55.55"/>
  <rect class="cls-1" x="150.98" y="55.55" width=".98" height="19.6"/>
  <polygon class="cls-1" points="172.54 55.55 173.77 55.55 187.45 73.88 187.45 55.55 188.43 55.55 188.43 75.15 187.2 75.15 173.53 56.82 173.53 75.15 172.54 75.15 172.54 55.55"/>
  <rect class="cls-1" x="209.01" y="55.55" width=".98" height="19.6"/>
  <path class="cls-1" d="M234.51,74.13c-1.54-.86-2.75-2.05-3.61-3.58-.87-1.53-1.3-3.27-1.3-5.23s.43-3.68,1.3-5.21c.86-1.53,2.07-2.71,3.61-3.56s3.3-1.27,5.28-1.27c1.65,0,3.17.34,4.57,1.02,1.4.68,2.55,1.62,3.47,2.84.92,1.22,1.5,2.6,1.74,4.15h-1.03c-.23-1.37-.76-2.6-1.58-3.67-.82-1.08-1.86-1.92-3.11-2.53s-2.6-.91-4.06-.91c-1.78,0-3.37.39-4.77,1.16-1.4.77-2.48,1.86-3.26,3.23-.77,1.38-1.16,2.96-1.16,4.74s.39,3.37,1.16,4.77c.78,1.4,1.86,2.48,3.26,3.26,1.4.78,2.99,1.16,4.77,1.16,1.47,0,2.83-.3,4.08-.91,1.25-.6,2.28-1.45,3.1-2.54.82-1.09,1.34-2.32,1.57-3.71h1.03c-.25,1.57-.83,2.96-1.74,4.18-.92,1.22-2.07,2.17-3.47,2.85-1.4.69-2.92,1.03-4.57,1.03-1.98,0-3.74-.43-5.28-1.29"/>
</svg>